<?xml version="1.0" encoding="UTF-8" standalone="no"?>
<svg
   xmlns:dc="http://purl.org/dc/elements/1.1/"
   xmlns:cc="http://creativecommons.org/ns#"
   xmlns:rdf="http://www.w3.org/1999/02/22-rdf-syntax-ns#"
   xmlns:svg="http://www.w3.org/2000/svg"
   xmlns="http://www.w3.org/2000/svg"
   xmlns:sodipodi="http://sodipodi.sourceforge.net/DTD/sodipodi-0.dtd"
   xmlns:inkscape="http://www.inkscape.org/namespaces/inkscape"
   width="100%"
   height="100%"
   viewBox="0 0 221 89"
   version="1.1"
   xml:space="preserve"
   style="fill-rule:evenodd;clip-rule:evenodd;stroke-linejoin:round;stroke-miterlimit:1.41421;"
   id="svg2"
   inkscape:version="0.91 r13725"
   sodipodi:docname="car2.svg"><metadata
     id="metadata125"><rdf:RDF><cc:Work
         rdf:about=""><dc:format>image/svg+xml</dc:format><dc:type
           rdf:resource="http://purl.org/dc/dcmitype/StillImage" /></cc:Work></rdf:RDF></metadata><defs
     id="defs123" /><sodipodi:namedview
     pagecolor="#ffffff"
     bordercolor="#666666"
     borderopacity="1"
     objecttolerance="10"
     gridtolerance="10"
     guidetolerance="10"
     inkscape:pageopacity="0"
     inkscape:pageshadow="2"
     inkscape:window-width="1161"
     inkscape:window-height="803"
     id="namedview121"
     showgrid="false"
     inkscape:zoom="4.4705882"
     inkscape:cx="23.486842"
     inkscape:cy="44.5"
     inkscape:window-x="0"
     inkscape:window-y="0"
     inkscape:window-maximized="0"
     inkscape:current-layer="svg2" /><clipPath
     id="_clip1"><rect
       x="0"
       y="0"
       width="220.42"
       height="88.979"
       id="rect6" /></clipPath><path
     style="opacity:1;fill:#ffffff;fill-opacity:1;stroke:none;stroke-width:3.5;stroke-linecap:round;stroke-linejoin:round;stroke-miterlimit:4;stroke-dasharray:none;stroke-opacity:1"
     d="m 8.3985555,8.9013828 203.5087845,0 -0.062,17.4220702 4.3602,0.138527 0.0711,40.889497 -4.57756,0.06216 -3.19196,1.901148 -0.13974,4.854899 -2.01272,9.52e-4 -2.77645,2.083633 -2.06614,0.552954 -3.76326,4.432318 -7.2684,0.139034 -3.2247,-3.497643 -3.52396,-0.16141 -0.006,1.208574 -17.97694,0.307759 -0.90715,-1.217824 -3.18691,-0.155373 -3.11514,3.665342 -7.23923,-0.116919 -4.56869,-5.140662 -5.62217,0.0016 -2.91518,2.43028 -56.082949,0.0156 -3.192799,-2.42821 -5.691563,0.0016 -4.208727,5.266092 -6.72209,-0.106496 -3.419705,-3.320511 -3.339359,1.48e-4 -0.774274,0.93926 -18.312269,-0.0095 -0.0095,-1.27134 -3.055247,-0.02873 -3.385887,3.776977 -7.154682,0.01128 -6.187231,-5.241102 -2.776328,-2.045685 -1.868116,8.84e-4 -0.21415,-5.114672 -2.8457971,-1.664855 -4.8247957,0.13784 -0.1351808,-41.784588 4.564591,-0.0686 z"
     id="rect4223"
     inkscape:connector-curvature="0"
     sodipodi:nodetypes="cccccccccccccccccccccccccccccccccccccccccccccc" /><rect
     style="opacity:1;fill:#adeb00;fill-opacity:1;stroke:none;stroke-width:3.5;stroke-linecap:round;stroke-linejoin:round;stroke-miterlimit:4;stroke-dasharray:none;stroke-opacity:1"
     id="rect4135"
     width="189.23685"
     height="53.013157"
     x="15.657895"
     y="16.526316" /></svg>