<?xml version="1.0" encoding="UTF-8" standalone="no"?>
<svg
   xmlns:dc="http://purl.org/dc/elements/1.1/"
   xmlns:cc="http://creativecommons.org/ns#"
   xmlns:rdf="http://www.w3.org/1999/02/22-rdf-syntax-ns#"
   xmlns:svg="http://www.w3.org/2000/svg"
   xmlns="http://www.w3.org/2000/svg"
   xmlns:sodipodi="http://sodipodi.sourceforge.net/DTD/sodipodi-0.dtd"
   xmlns:inkscape="http://www.inkscape.org/namespaces/inkscape"
   height="1250"
   width="1000"
   id="svg2"
   xml:space="preserve"
   enable-background="new 0 0 1000 1000"
   viewBox="0 0 1000 1250"
   y="0px"
   x="0px"
   version="1.1"
   inkscape:version="0.91 r13725"
   sodipodi:docname="people3.svg"><sodipodi:namedview
     pagecolor="#ffffff"
     bordercolor="#666666"
     borderopacity="1"
     objecttolerance="10"
     gridtolerance="10"
     guidetolerance="10"
     inkscape:pageopacity="0"
     inkscape:pageshadow="2"
     inkscape:window-width="763"
     inkscape:window-height="480"
     id="namedview12"
     showgrid="false"
     inkscape:zoom="0.1888"
     inkscape:cx="733.05085"
     inkscape:cy="625"
     inkscape:window-x="0"
     inkscape:window-y="0"
     inkscape:window-maximized="0"
     inkscape:current-layer="svg2" /><defs
     id="defs22" /><metadata
     id="metadata4"> Svg Vector Icons : http://www.onlinewebfonts.com/icon <rdf:RDF><cc:Work
     rdf:about=""><dc:format>image/svg+xml</dc:format><dc:type
       rdf:resource="http://purl.org/dc/dcmitype/StillImage" /><dc:title /></cc:Work></rdf:RDF></metadata><g
     transform="translate(0,250)"
     id="g6"
     style="fill:#ffffff"><path
       id="path8"
       d="m 69.1,107.4 c 0,53.4 43.3,96.6 96.6,96.6 53.3,0 96.6,-43.3 96.6,-96.6 0,-53.4 -43.3,-96.6 -96.6,-96.6 -53.3,0 -96.6,43.3 -96.6,96.6 l 0,0 z"
       style="fill:#ffffff" /><path
       id="path10"
       d="m 57.9,542.7 9.6,0 0,191.7 c 0,26.4 21.6,47.9 47.9,47.9 l 100.6,0 c 26.4,0 47.9,-21.6 47.9,-47.9 l 0,-11.2 c -8.8,-16.8 -14.4,-35.9 -14.4,-55.9 l 0,-250.8 c 0,-48.7 29.6,-91.1 71.9,-109.4 l 0,-19.2 C 321.4,261.5 299.8,240 273.5,240 L 57.9,240 C 31.6,240 10,261.6 10,287.9 l 0,206.9 c 0,26.4 20.8,47.9 47.9,47.9 z"
       style="fill:#ffffff" /><path
       id="path12"
       d="m 738.4,107.4 c 0,53.4 43.3,96.6 96.6,96.6 53.3,0 96.6,-43.3 96.6,-96.6 0,-53.4 -43.3,-96.6 -96.6,-96.6 -53.3,0 -96.6,43.3 -96.6,96.6 z"
       style="fill:#ffffff" /><path
       id="path14"
       d="m 678.5,287.2 0,19.2 c 42.3,18.4 71.9,60.7 71.9,109.4 l 0,250 c 0,20 -4.8,39.1 -14.4,55.9 l 0,11.2 c 0,26.4 21.6,47.9 47.9,47.9 l 100.6,0 c 26.4,0 47.9,-21.6 47.9,-47.9 l 0,-191.8 9.6,0 c 26.4,0 47.9,-21.6 47.9,-47.9 l 0,-206 c 0,-26.4 -21.6,-47.9 -47.9,-47.9 l -215.6,0 c -26.3,-0.1 -47.9,21.5 -47.9,47.9 z"
       style="fill:#ffffff" /><path
       id="path16"
       d="m 322.3,416.5 0,0 0,78.3 0,172.5 c 0,26.4 21.6,47.9 47.9,47.9 l 18.4,0 0,226 c 0,26.4 21.6,47.9 47.9,47.9 l 128.6,0 c 26.4,0 47.9,-21.6 47.9,-47.9 l 0,-226.8 18.4,0 c 26.4,0 47.9,-21.6 47.9,-47.9 l 0,-171.7 0,-78.3 0,0 c 0,-26.4 -21.6,-47.9 -47.9,-47.9 l -261.2,0 c -27.1,0 -47.9,21.6 -47.9,47.9 z"
       style="fill:#ffffff" /><path
       id="path18"
       d="m 389.4,217.7 c 0,61.3 49.7,111 111,111 61.3,0 111,-49.7 111,-111 0,-61.3 -49.7,-111 -111,-111 -61.3,-0.1 -111,49.6 -111,111 z"
       style="fill:#ffffff" /></g></svg>