<?xml version="1.0" encoding="UTF-8" standalone="no"?>
<svg
   xmlns:dc="http://purl.org/dc/elements/1.1/"
   xmlns:cc="http://creativecommons.org/ns#"
   xmlns:rdf="http://www.w3.org/1999/02/22-rdf-syntax-ns#"
   xmlns:svg="http://www.w3.org/2000/svg"
   xmlns="http://www.w3.org/2000/svg"
   xmlns:sodipodi="http://sodipodi.sourceforge.net/DTD/sodipodi-0.dtd"
   xmlns:inkscape="http://www.inkscape.org/namespaces/inkscape"
   height="1250"
   width="1000"
   id="svg2"
   xml:space="preserve"
   enable-background="new 0 0 1000 1000"
   viewBox="0 0 1000 1250"
   y="0px"
   x="0px"
   version="1.1"
   inkscape:version="0.91 r13725"
   sodipodi:docname="people4.svg"><sodipodi:namedview
     pagecolor="#ffffff"
     bordercolor="#666666"
     borderopacity="1"
     objecttolerance="10"
     gridtolerance="10"
     guidetolerance="10"
     inkscape:pageopacity="0"
     inkscape:pageshadow="2"
     inkscape:window-width="640"
     inkscape:window-height="480"
     id="namedview13"
     showgrid="false"
     inkscape:zoom="0.1888"
     inkscape:cx="407.30932"
     inkscape:cy="625"
     inkscape:window-x="0"
     inkscape:window-y="0"
     inkscape:window-maximized="0"
     inkscape:current-layer="svg2" /><defs
     id="defs22" /><metadata
     id="metadata4"> Svg Vector Icons : http://www.onlinewebfonts.com/icon <rdf:RDF><cc:Work
     rdf:about=""><dc:format>image/svg+xml</dc:format><dc:type
       rdf:resource="http://purl.org/dc/dcmitype/StillImage" /><dc:title /></cc:Work></rdf:RDF></metadata><path
     id="path4235"
     d="m 370.19922,266.59961 c -27.1,0 -47.89844,21.60039 -47.89844,47.90039 l 0,78.30078 0,58.4707 17.16406,0 c 8.90298,-80.29373 76.88688,-142.64638 159.4375,-142.51171 82.5412,0 150.5201,62.34747 159.43555,142.51171 l 20.96289,0 0,-58.4707 0,-78.30078 c 0,-26.4 -21.60039,-47.90039 -47.90039,-47.90039 z"
     style="fill:#ffffff" /><path
     d="m 69.1,357.4 c 0,53.4 43.3,96.6 96.6,96.6 53.3,0 96.6,-43.3 96.6,-96.6 0,-53.4 -43.3,-96.6 -96.6,-96.6 -53.3,0 -96.6,43.3 -96.6,96.6 l 0,0 z"
     id="path8"
     style="fill:#ffffff" /><path
     d="m 57.9,792.7 9.6,0 0,191.7 c 0,26.4 21.6,47.9 47.9,47.9 l 100.6,0 c 26.4,0 47.9,-21.6 47.9,-47.9 l 0,-11.2 c -8.8,-16.8 -14.4,-35.9 -14.4,-55.9 l 0,-250.8 c 0,-48.7 29.6,-91.1 71.9,-109.4 l 0,-19.2 C 321.4,511.5 299.8,490 273.5,490 L 57.9,490 C 31.6,490 10,511.6 10,537.9 l 0,206.9 c 0,26.4 20.8,47.9 47.9,47.9 z"
     id="path10"
     style="fill:#ffffff" /><path
     d="m 738.4,357.4 c 0,53.4 43.3,96.6 96.6,96.6 53.3,0 96.6,-43.3 96.6,-96.6 0,-53.4 -43.3,-96.6 -96.6,-96.6 -53.3,0 -96.6,43.3 -96.6,96.6 z"
     id="path12"
     style="fill:#ffffff" /><path
     d="m 678.5,537.2 0,19.2 c 42.3,18.4 71.9,60.7 71.9,109.4 l 0,250 c 0,20 -4.8,39.1 -14.4,55.9 l 0,11.2 c 0,26.4 21.6,47.9 47.9,47.9 l 100.6,0 c 26.4,0 47.9,-21.6 47.9,-47.9 l 0,-191.8 9.6,0 c 26.4,0 47.9,-21.6 47.9,-47.9 l 0,-206 c 0,-26.4 -21.6,-47.9 -47.9,-47.9 l -215.6,0 c -26.3,-0.1 -47.9,21.5 -47.9,47.9 z"
     id="path14"
     style="fill:#ffffff" /><path
     d="m 322.3,666.5 0,0 0,78.3 0,172.5 c 0,26.4 21.6,47.9 47.9,47.9 l 18.4,0 0,226 c 0,26.4 21.6,47.9 47.9,47.9 l 128.6,0 c 26.4,0 47.9,-21.6 47.9,-47.9 l 0,-226.8 18.4,0 c 26.4,0 47.9,-21.6 47.9,-47.9 l 0,-171.7 0,-78.3 0,0 c 0,-26.4 -21.6,-47.9 -47.9,-47.9 l -261.2,0 c -27.1,0 -47.9,21.6 -47.9,47.9 z"
     id="path16"
     style="fill:#ffffff" /><path
     d="m 389.4,467.7 c 0,61.3 49.7,111 111,111 61.3,0 111,-49.7 111,-111 0,-61.3 -49.7,-111 -111,-111 -61.3,-0.1 -111,49.6 -111,111 z"
     id="path18"
     style="fill:#ffffff" /><path
     id="path4237"
     d="m 389.4,115.7 c 0,61.3 49.7,111 111,111 61.3,0 111,-49.7 111,-111 0,-61.3 -49.7,-111 -111,-111 -61.3,-0.1 -111,49.6 -111,111 z"
     style="fill:#ffffff" /></svg>