<?xml version="1.0" encoding="UTF-8" standalone="no"?>
<svg
   xmlns:dc="http://purl.org/dc/elements/1.1/"
   xmlns:cc="http://creativecommons.org/ns#"
   xmlns:rdf="http://www.w3.org/1999/02/22-rdf-syntax-ns#"
   xmlns:svg="http://www.w3.org/2000/svg"
   xmlns="http://www.w3.org/2000/svg"
   xmlns:sodipodi="http://sodipodi.sourceforge.net/DTD/sodipodi-0.dtd"
   xmlns:inkscape="http://www.inkscape.org/namespaces/inkscape"
   height="1250"
   width="1000"
   id="svg2"
   xml:space="preserve"
   enable-background="new 0 0 1000 1000"
   viewBox="0 0 1000 1250"
   y="0px"
   x="0px"
   version="1.1"
   inkscape:version="0.91 r13725"
   sodipodi:docname="people2.svg"><sodipodi:namedview
     pagecolor="#ffffff"
     bordercolor="#666666"
     borderopacity="1"
     objecttolerance="10"
     gridtolerance="10"
     guidetolerance="10"
     inkscape:pageopacity="0"
     inkscape:pageshadow="2"
     inkscape:window-width="763"
     inkscape:window-height="480"
     id="namedview9"
     showgrid="false"
     inkscape:zoom="0.1888"
     inkscape:cx="733.05085"
     inkscape:cy="625"
     inkscape:window-x="0"
     inkscape:window-y="0"
     inkscape:window-maximized="0"
     inkscape:current-layer="svg2" /><defs
     id="defs22" /><metadata
     id="metadata4"> Svg Vector Icons : http://www.onlinewebfonts.com/icon <rdf:RDF><cc:Work
     rdf:about=""><dc:format>image/svg+xml</dc:format><dc:type
       rdf:resource="http://purl.org/dc/dcmitype/StillImage" /><dc:title /></cc:Work></rdf:RDF></metadata><path
     d="m 102.3,666.5 0,0 0,78.3 0,172.5 c 0,26.4 21.6,47.9 47.9,47.9 l 18.4,0 0,226 c 0,26.4 21.6,47.9 47.9,47.9 l 128.6,0 c 26.4,0 47.9,-21.6 47.9,-47.9 l 0,-226.8 18.4,0 c 26.4,0 47.9,-21.6 47.9,-47.9 l 0,-171.7 0,-78.3 0,0 c 0,-26.4 -21.6,-47.9 -47.9,-47.9 l -261.2,0 c -27.1,0 -47.9,21.6 -47.9,47.9 z"
     id="path16"
     style="fill:#ffffff" /><path
     d="m 169.4,467.7 c 0,61.3 49.7,111 111,111 61.3,0 111,-49.7 111,-111 0,-61.3 -49.7,-111 -111,-111 -61.3,-0.1 -111,49.6 -111,111 z"
     id="path18"
     style="fill:#ffffff" /><path
     id="path4270"
     d="m 542.3,666.5 0,0 0,78.3 0,172.5 c 0,26.4 21.6,47.9 47.9,47.9 l 18.4,0 0,226 c 0,26.4 21.6,47.9 47.9,47.9 l 128.6,0 c 26.4,0 47.9,-21.6 47.9,-47.9 l 0,-226.8 18.4,0 c 26.4,0 47.9,-21.6 47.9,-47.9 l 0,-171.7 0,-78.3 0,0 c 0,-26.4 -21.6,-47.9 -47.9,-47.9 l -261.2,0 c -27.1,0 -47.9,21.6 -47.9,47.9 z"
     style="fill:#ffffff" /><path
     id="path4272"
     d="m 609.4,467.7 c 0,61.3 49.7,111 111,111 61.3,0 111,-49.7 111,-111 0,-61.3 -49.7,-111 -111,-111 -61.3,-0.1 -111,49.6 -111,111 z"
     style="fill:#ffffff" /></svg>