<?xml version="1.0" encoding="UTF-8" standalone="no"?><!DOCTYPE svg PUBLIC "-//W3C//DTD SVG 1.1//EN" "http://www.w3.org/Graphics/SVG/1.1/DTD/svg11.dtd"><svg width="100%" height="100%" viewBox="0 0 17 17" version="1.1" xmlns="http://www.w3.org/2000/svg" xmlns:xlink="http://www.w3.org/1999/xlink" xml:space="preserve" style="fill-rule:evenodd;clip-rule:evenodd;stroke-linejoin:round;stroke-miterlimit:1.41421;"><g><path d="M8.792,16.03c-4.419,0 -8,-3.593 -8,-8c0,-4.419 3.594,-8 8,-8c4.419,0 8,3.594 8,8c0,4.407 -3.594,8 -8,8l0,0Zm0,-14.742c-3.708,0 -6.73,3.022 -6.73,6.73c0,3.708 3.022,6.73 6.73,6.73c3.708,0 6.73,-3.022 6.73,-6.73c0,-3.708 -3.022,-6.73 -6.73,-6.73Z" style="fill:#fff;fill-rule:nonzero;"/><path d="M8.792,8.78c-0.356,0 -0.635,-0.28 -0.635,-0.635l0,-5.029c0,-0.355 0.279,-0.635 0.635,-0.635c0.356,0 0.635,0.28 0.635,0.635l0,5.016c0,0.356 -0.279,0.648 -0.635,0.648Z" style="fill:#fff;fill-rule:nonzero;"/><path d="M12.83,11.523c-0.114,0 -0.241,-0.039 -0.343,-0.102l-3.936,-2.552c-0.292,-0.191 -0.381,-0.585 -0.191,-0.877c0.191,-0.292 0.584,-0.381 0.876,-0.19l3.937,2.552c0.292,0.191 0.381,0.584 0.19,0.876c-0.127,0.191 -0.33,0.293 -0.533,0.293Z" style="fill:#fff;fill-rule:nonzero;"/></g></svg>